<?xml version="1.0" encoding="UTF-8"?>
<svg id="Capa_2" xmlns="http://www.w3.org/2000/svg" viewBox="0 0 264.79 186.49">
  <defs>
    <style>
      .cls-1 {
        fill: #3b4a51;
      }
    </style>
  </defs>
  <g id="Capa_1-2" data-name="Capa_1">
    <g id="logo-stack">
      <g>
        <path class="cls-1" d="M28.97,151.98l-4.96-14.69h-13.46l-5.24,14.69h5.1v1.29H0v-1.29h3.2l17.34-46.72h5.58l17.14,46.72h3.13v1.29h-22.24v-1.29h4.83ZM17.54,117.98l-6.39,17.82h12.31l-5.92-17.82Z"/>
        <path class="cls-1" d="M46.99,120.91h16.39v6.26c1.5-4.62,4.79-6.94,9.89-6.94s8.19,2.45,9.28,7.34c1.59-4.9,4.92-7.34,10-7.34,6.66,0,10,3.79,10,11.36v20.47h3.81v1.22h-18.84v-1.22h2.38v-22.1c0-3.44-.29-5.46-.88-6.05-.27-.27-.64-.41-1.09-.41-1.32,0-2.47.88-3.47,2.65-1,1.77-1.5,4.01-1.5,6.73v19.18h2.45v1.22h-17.48v-1.22h2.38v-22.1c0-3.44-.29-5.46-.88-6.05-.27-.27-.64-.41-1.09-.41-1.27,0-2.41.96-3.43,2.89-1.02,1.93-1.53,4.23-1.53,6.9v18.77h2.45v1.22h-18.84v-1.22h3.74v-29.92h-3.74v-1.22Z"/>
        <path class="cls-1" d="M111.62,149.43c-2.92-3.01-4.39-7.21-4.39-12.58s1.64-9.49,4.93-12.34c3.29-2.86,7.47-4.28,12.55-4.28,10.29,0,15.23,5.17,14.82,15.5h-19.18v2.65c0,4.44.57,7.8,1.7,10.06,1.13,2.27,3.1,3.4,5.92,3.4,5.26,0,8.7-2.81,10.34-8.43l1.22.2c-.86,3.26-2.41,5.8-4.66,7.62-2.24,1.81-5.61,2.72-10.1,2.72-5.85,0-10.23-1.51-13.16-4.52ZM120.43,134.37h7v-3.33c0-3.67-.22-6.18-.65-7.51-.43-1.34-1.29-2.01-2.58-2.01s-2.24.71-2.86,2.14c-.61,1.43-.92,3.89-.92,7.38v3.33Z"/>
        <path class="cls-1" d="M164.22,122.81c-1.68,0-3.15,1.09-4.42,3.26-1.27,2.18-1.9,4.76-1.9,7.75v18.22h4.83v1.22h-21.22v-1.22h3.74v-29.92h-3.74v-1.22h16.39v6.53c.59-2.31,1.72-4.09,3.4-5.34,1.68-1.25,3.58-1.87,5.71-1.87s3.86.6,5.2,1.8c1.34,1.2,2.01,2.9,2.01,5.1s-.5,3.89-1.5,5.07c-1,1.18-2.53,1.77-4.59,1.77s-3.58-.68-4.56-2.04c-.98-1.36-1.1-3.24-.37-5.64h2.45c1.13-2.31.66-3.47-1.43-3.47Z"/>
        <path class="cls-1" d="M174.42,120.91h16.66v31.14h3.81v1.22h-20.2v-1.22h3.74v-29.92h-4.01v-1.22ZM184.69,116.22c-2.4,0-4.11-.61-5.13-1.84-1.02-1.22-1.53-2.74-1.53-4.56s.55-3.31,1.67-4.49c1.11-1.18,2.8-1.77,5.07-1.77s3.99.53,5.17,1.6c1.18,1.07,1.77,2.58,1.77,4.56s-.57,3.55-1.7,4.73c-1.13,1.18-2.9,1.77-5.3,1.77Z"/>
        <path class="cls-1" d="M214.81,121.45c-2,0-3.42,1.09-4.28,3.26s-1.29,5.78-1.29,10.81v3.54c0,4.49.5,7.71,1.5,9.66,1,1.95,2.83,2.92,5.51,2.92s4.8-.91,6.39-2.72c1.59-1.81,2.61-3.88,3.06-6.19l1.22.14c-.86,3.9-2.45,6.71-4.76,8.43-2.36,1.77-5.6,2.65-9.72,2.65-5.26,0-9.29-1.42-12.1-4.25-2.81-2.83-4.22-6.98-4.22-12.44s1.6-9.67,4.79-12.61c3.2-2.95,7.65-4.42,13.36-4.42,4.03,0,7.12.78,9.25,2.35,2.13,1.56,3.2,3.53,3.2,5.88s-.51,4.08-1.53,5.17c-1.02,1.09-2.43,1.63-4.22,1.63s-3.23-.48-4.32-1.43c-1.09-.95-1.63-2.36-1.63-4.22,0-.82.11-1.63.34-2.45h2.24c.32-.91.48-1.72.48-2.45,0-2.18-1.09-3.26-3.26-3.26Z"/>
        <path class="cls-1" d="M244.46,137.3h1.97v-5.24c0-4.31-.24-7.2-.71-8.67-.48-1.47-1.39-2.21-2.75-2.21-.82,0-1.55.22-2.21.65-.66.43-.99,1.02-.99,1.77s.14,1.51.41,2.28h1.7c.36.95.54,2.1.54,3.43s-.57,2.49-1.7,3.47c-1.13.98-2.56,1.46-4.28,1.46-3.9,0-5.85-1.88-5.85-5.64,0-5.58,4.74-8.36,14.21-8.36,5.39,0,9.12.92,11.19,2.75,2.06,1.84,3.09,5.2,3.09,10.1v13.8c0,2.36.66,3.54,1.97,3.54,1.54,0,2.45-2.33,2.72-7l1.02.07c-.18,3.99-.93,6.73-2.24,8.23-1.32,1.5-3.47,2.24-6.46,2.24-5.44,0-8.57-1.68-9.38-5.03-.59,1.72-1.47,2.99-2.65,3.81-1.18.82-2.9,1.22-5.17,1.22-6.71,0-10.06-2.74-10.06-8.23,0-3.22,1.28-5.43,3.84-6.63,2.56-1.2,6.49-1.8,11.8-1.8ZM242.11,150.22c.25.68.72,1.02,1.43,1.02s1.36-.58,1.97-1.73c.61-1.16.92-2.75.92-4.79v-6.32h-.48c-2.81,0-4.22,2.06-4.22,6.19v1.09c0,2.36.12,3.88.37,4.56Z"/>
        <path class="cls-1" d="M5.57,167.38h2.7v18.89h-2.7v-18.89Z"/>
        <path class="cls-1" d="M35.59,167.38v18.89h-2.21l-11.34-14.09v14.09h-2.7v-18.89h2.21l11.34,14.09v-14.09h2.7Z"/>
        <path class="cls-1" d="M64.19,186.28l-.03-13.77-6.83,11.47h-1.24l-6.83-11.39v13.69h-2.59v-18.89h2.21l7.88,13.28,7.77-13.28h2.21l.03,18.89h-2.59Z"/>
        <path class="cls-1" d="M76.31,176.83c0-5.53,4.26-9.66,10.07-9.66s10.01,4.1,10.01,9.66-4.26,9.66-10.01,9.66-10.07-4.13-10.07-9.66ZM93.7,176.83c0-4.18-3.13-7.26-7.31-7.26s-7.37,3.08-7.37,7.26,3.13,7.26,7.37,7.26,7.31-3.08,7.31-7.26Z"/>
        <path class="cls-1" d="M122.18,181.17c0,3.24-2.46,5.1-7.23,5.1h-9.02v-18.89h8.48c4.35,0,6.78,1.83,6.78,4.89,0,2.05-1.05,3.48-2.54,4.21,2.13.59,3.54,2.19,3.54,4.7ZM108.63,169.57v6.05h5.53c2.75,0,4.32-1.03,4.32-3.02s-1.57-3.02-4.32-3.02h-5.53ZM119.45,180.96c0-2.19-1.62-3.16-4.62-3.16h-6.21v6.29h6.21c3,0,4.62-.94,4.62-3.13Z"/>
        <path class="cls-1" d="M131.77,167.38h2.7v18.89h-2.7v-18.89Z"/>
        <path class="cls-1" d="M145.54,167.38h2.7v16.55h10.23v2.35h-12.93v-18.89Z"/>
        <path class="cls-1" d="M166.98,167.38h2.7v18.89h-2.7v-18.89Z"/>
        <path class="cls-1" d="M192.79,181.55h-10.04l-2.08,4.72h-2.78l8.56-18.89h2.67l8.58,18.89h-2.83l-2.08-4.72ZM191.84,179.39l-4.08-9.26-4.08,9.26h8.15Z"/>
        <path class="cls-1" d="M218.54,186.28l-4.08-5.8c-.38.03-.78.05-1.19.05h-4.67v5.75h-2.7v-18.89h7.37c4.91,0,7.88,2.48,7.88,6.59,0,2.92-1.51,5.02-4.16,5.97l4.48,6.34h-2.94ZM218.46,173.97c0-2.7-1.81-4.24-5.26-4.24h-4.59v8.5h4.59c3.46,0,5.26-1.57,5.26-4.26Z"/>
        <path class="cls-1" d="M230.94,167.38h2.7v18.89h-2.7v-18.89Z"/>
        <path class="cls-1" d="M256.75,181.55h-10.04l-2.08,4.72h-2.78l8.56-18.89h2.67l8.58,18.89h-2.83l-2.08-4.72ZM255.81,179.39l-4.08-9.26-4.08,9.26h8.15Z"/>
      </g>
      <g>
        <polygon class="cls-1" points="152.34 15.05 131.66 5.49 131.66 0 110.64 8.56 110.64 16.17 131.49 7.64 152.34 16.17 152.34 15.05"/>
        <polygon class="cls-1" points="152.34 27.53 131.66 19.55 131.66 14.02 110.64 21.15 110.64 28.69 131.49 21.67 152.34 28.69 152.34 27.53"/>
        <polygon class="cls-1" points="152.34 40.06 131.66 33.44 131.66 28.08 110.64 33.64 110.64 41.18 131.49 35.69 152.34 41.18 152.34 40.06"/>
        <polygon class="cls-1" points="152.34 52.65 131.66 48.11 131.66 42.72 110.64 46.16 110.64 53.7 131.49 50.22 152.34 53.7 152.34 52.65"/>
        <polygon class="cls-1" points="110.64 58.65 110.64 66.19 131.49 64.45 152.34 66.19 152.34 65.17 131.66 62.23 131.66 56.84 110.64 58.65"/>
        <polygon class="cls-1" points="152.34 78.68 152.34 77.66 131.66 76.43 131.66 71.21 110.64 71.21 110.64 78.68 131.49 78.68 152.34 78.68"/>
        <polygon class="cls-1" points="176.25 14.02 155.17 21.15 155.17 28.69 176.02 21.67 196.83 28.69 196.83 27.53 176.25 19.55 176.25 14.02"/>
        <polygon class="cls-1" points="176.25 28.08 155.17 33.64 155.17 41.18 176.02 35.69 196.83 41.18 196.83 40.06 176.25 33.44 176.25 28.08"/>
        <polygon class="cls-1" points="176.25 42.72 155.17 46.16 155.17 53.7 176.02 50.22 196.83 53.7 196.83 52.65 176.25 48.11 176.25 42.72"/>
        <polygon class="cls-1" points="176.25 56.84 155.17 58.65 155.17 66.19 176.02 64.45 196.83 66.19 196.83 65.17 176.25 62.23 176.25 56.84"/>
        <polygon class="cls-1" points="176.25 71.21 155.17 71.21 155.17 78.68 176.02 78.68 196.83 78.68 196.83 77.66 176.25 76.43 176.25 71.21"/>
        <polygon class="cls-1" points="86.76 28.08 65.74 33.64 65.74 41.18 86.55 35.69 107.4 41.18 107.4 40.06 86.76 33.44 86.76 28.08"/>
        <polygon class="cls-1" points="86.76 42.72 65.74 46.16 65.74 53.7 86.55 50.22 107.4 53.7 107.4 52.65 86.76 48.11 86.76 42.72"/>
        <polygon class="cls-1" points="86.76 56.84 65.74 58.65 65.74 66.19 86.55 64.45 107.4 66.19 107.4 65.17 86.76 62.23 86.76 56.84"/>
        <polygon class="cls-1" points="86.76 71.21 65.74 71.21 65.74 78.68 86.55 78.68 107.4 78.68 107.4 77.66 86.76 76.43 86.76 71.21"/>
      </g>
    </g>
  </g>
</svg>