<?xml version="1.0" encoding="UTF-8"?>
<svg id="Capa_2" xmlns="http://www.w3.org/2000/svg" viewBox="0 0 466.98 106.98">
  <defs>
    <style>
      .cls-1 {
        fill: #fff;
      }
    </style>
  </defs>
  <g id="Capa_1-2" data-name="Capa_1">
    <g id="logo-white">
      <g>
        <path class="cls-1" d="M231.16,72.47l-4.96-14.69h-13.46l-5.24,14.69h5.1v1.29h-10.4v-1.29h3.2l17.34-46.72h5.58l17.14,46.72h3.13v1.29h-22.24v-1.29h4.83ZM219.74,38.47l-6.39,17.82h12.31l-5.92-17.82Z"/>
        <path class="cls-1" d="M249.18,41.39h16.39v6.26c1.5-4.62,4.79-6.94,9.89-6.94s8.19,2.45,9.28,7.34c1.59-4.9,4.92-7.34,10-7.34,6.66,0,10,3.79,10,11.36v20.47h3.81v1.22h-18.84v-1.22h2.38v-22.1c0-3.44-.29-5.46-.88-6.05-.27-.27-.64-.41-1.09-.41-1.32,0-2.47.88-3.47,2.65-1,1.77-1.5,4.01-1.5,6.73v19.18h2.45v1.22h-17.48v-1.22h2.38v-22.1c0-3.44-.29-5.46-.88-6.05-.27-.27-.64-.41-1.09-.41-1.27,0-2.41.96-3.43,2.89-1.02,1.93-1.53,4.23-1.53,6.9v18.77h2.45v1.22h-18.84v-1.22h3.74v-29.92h-3.74v-1.22Z"/>
        <path class="cls-1" d="M313.82,69.92c-2.92-3.01-4.39-7.21-4.39-12.58s1.64-9.49,4.93-12.34c3.29-2.86,7.47-4.28,12.55-4.28,10.29,0,15.23,5.17,14.82,15.5h-19.18v2.65c0,4.44.57,7.8,1.7,10.06,1.13,2.27,3.1,3.4,5.92,3.4,5.26,0,8.7-2.81,10.34-8.43l1.22.2c-.86,3.26-2.41,5.8-4.66,7.62-2.24,1.81-5.61,2.72-10.1,2.72-5.85,0-10.23-1.51-13.16-4.52ZM322.62,54.86h7v-3.33c0-3.67-.22-6.18-.65-7.51-.43-1.34-1.29-2.01-2.58-2.01s-2.24.71-2.86,2.14c-.61,1.43-.92,3.89-.92,7.38v3.33Z"/>
        <path class="cls-1" d="M366.41,43.3c-1.68,0-3.15,1.09-4.42,3.26-1.27,2.18-1.9,4.76-1.9,7.75v18.22h4.83v1.22h-21.22v-1.22h3.74v-29.92h-3.74v-1.22h16.39v6.53c.59-2.31,1.72-4.09,3.4-5.34,1.68-1.25,3.58-1.87,5.71-1.87s3.86.6,5.2,1.8c1.34,1.2,2.01,2.9,2.01,5.1s-.5,3.89-1.5,5.07c-1,1.18-2.53,1.77-4.59,1.77s-3.58-.68-4.56-2.04c-.98-1.36-1.1-3.24-.37-5.64h2.45c1.13-2.31.66-3.47-1.43-3.47Z"/>
        <path class="cls-1" d="M376.61,41.39h16.66v31.14h3.81v1.22h-20.2v-1.22h3.74v-29.92h-4.01v-1.22ZM386.88,36.7c-2.4,0-4.11-.61-5.13-1.84s-1.53-2.74-1.53-4.56.55-3.31,1.67-4.49c1.11-1.18,2.8-1.77,5.07-1.77s3.99.53,5.17,1.6c1.18,1.07,1.77,2.58,1.77,4.56s-.57,3.55-1.7,4.73c-1.13,1.18-2.9,1.77-5.3,1.77Z"/>
        <path class="cls-1" d="M417,41.94c-2,0-3.42,1.09-4.28,3.26-.86,2.18-1.29,5.78-1.29,10.81v3.54c0,4.49.5,7.71,1.5,9.66,1,1.95,2.83,2.92,5.51,2.92s4.8-.91,6.39-2.72c1.59-1.81,2.61-3.88,3.06-6.19l1.22.14c-.86,3.9-2.45,6.71-4.76,8.43-2.36,1.77-5.6,2.65-9.72,2.65-5.26,0-9.29-1.42-12.1-4.25-2.81-2.83-4.22-6.98-4.22-12.44s1.6-9.67,4.79-12.61c3.2-2.95,7.65-4.42,13.36-4.42,4.03,0,7.12.78,9.25,2.35s3.2,3.53,3.2,5.88-.51,4.08-1.53,5.17c-1.02,1.09-2.43,1.63-4.22,1.63s-3.23-.48-4.32-1.43c-1.09-.95-1.63-2.36-1.63-4.22,0-.82.11-1.63.34-2.45h2.24c.32-.91.48-1.72.48-2.45,0-2.18-1.09-3.26-3.26-3.26Z"/>
        <path class="cls-1" d="M446.65,57.78h1.97v-5.24c0-4.31-.24-7.2-.71-8.67-.48-1.47-1.39-2.21-2.75-2.21-.82,0-1.55.22-2.21.65-.66.43-.99,1.02-.99,1.77s.14,1.51.41,2.28h1.7c.36.95.54,2.1.54,3.43s-.57,2.49-1.7,3.47c-1.13.98-2.56,1.46-4.28,1.46-3.9,0-5.85-1.88-5.85-5.64,0-5.58,4.74-8.36,14.21-8.36,5.39,0,9.12.92,11.19,2.75,2.06,1.84,3.09,5.2,3.09,10.1v13.8c0,2.36.66,3.54,1.97,3.54,1.54,0,2.45-2.33,2.72-7l1.02.07c-.18,3.99-.93,6.73-2.24,8.23-1.32,1.5-3.47,2.24-6.46,2.24-5.44,0-8.57-1.68-9.38-5.03-.59,1.72-1.47,2.99-2.65,3.81s-2.9,1.22-5.17,1.22c-6.71,0-10.06-2.74-10.06-8.23,0-3.22,1.28-5.43,3.84-6.63,2.56-1.2,6.49-1.8,11.8-1.8ZM444.31,70.7c.25.68.72,1.02,1.43,1.02s1.36-.58,1.97-1.73c.61-1.16.92-2.75.92-4.79v-6.32h-.48c-2.81,0-4.22,2.06-4.22,6.19v1.09c0,2.36.12,3.88.37,4.56Z"/>
        <path class="cls-1" d="M207.77,87.86h2.7v18.9h-2.7v-18.9Z"/>
        <path class="cls-1" d="M237.79,87.86v18.9h-2.21l-11.34-14.09v14.09h-2.7v-18.9h2.21l11.34,14.09v-14.09h2.7Z"/>
        <path class="cls-1" d="M266.38,106.76l-.03-13.77-6.83,11.47h-1.24l-6.83-11.39v13.69h-2.59v-18.9h2.21l7.88,13.28,7.77-13.28h2.21l.03,18.9h-2.59Z"/>
        <path class="cls-1" d="M278.51,97.31c0-5.53,4.26-9.66,10.07-9.66s10.01,4.1,10.01,9.66-4.26,9.66-10.01,9.66-10.07-4.13-10.07-9.66ZM295.89,97.31c0-4.18-3.13-7.26-7.31-7.26s-7.37,3.08-7.37,7.26,3.13,7.26,7.37,7.26,7.31-3.08,7.31-7.26Z"/>
        <path class="cls-1" d="M324.38,101.66c0,3.24-2.46,5.1-7.23,5.1h-9.02v-18.9h8.48c4.35,0,6.78,1.84,6.78,4.89,0,2.05-1.05,3.48-2.54,4.21,2.13.59,3.54,2.19,3.54,4.7ZM310.83,90.05v6.05h5.53c2.75,0,4.32-1.03,4.32-3.02s-1.57-3.02-4.32-3.02h-5.53ZM321.65,101.44c0-2.19-1.62-3.16-4.62-3.16h-6.21v6.29h6.21c3,0,4.62-.94,4.62-3.13Z"/>
        <path class="cls-1" d="M333.97,87.86h2.7v18.9h-2.7v-18.9Z"/>
        <path class="cls-1" d="M347.74,87.86h2.7v16.55h10.23v2.35h-12.93v-18.9Z"/>
        <path class="cls-1" d="M369.17,87.86h2.7v18.9h-2.7v-18.9Z"/>
        <path class="cls-1" d="M394.98,102.04h-10.04l-2.08,4.72h-2.78l8.56-18.9h2.67l8.58,18.9h-2.83l-2.08-4.72ZM394.04,99.88l-4.08-9.26-4.08,9.26h8.15Z"/>
        <path class="cls-1" d="M420.74,106.76l-4.08-5.8c-.38.03-.78.05-1.19.05h-4.67v5.75h-2.7v-18.9h7.37c4.91,0,7.88,2.48,7.88,6.59,0,2.92-1.51,5.02-4.16,5.97l4.48,6.34h-2.94ZM420.66,94.45c0-2.7-1.81-4.24-5.26-4.24h-4.59v8.5h4.59c3.46,0,5.26-1.57,5.26-4.26Z"/>
        <path class="cls-1" d="M433.14,87.86h2.7v18.9h-2.7v-18.9Z"/>
        <path class="cls-1" d="M458.95,102.04h-10.04l-2.08,4.72h-2.78l8.56-18.9h2.67l8.58,18.9h-2.83l-2.08-4.72ZM458,99.88l-4.08-9.26-4.08,9.26h8.15Z"/>
      </g>
      <g>
        <polygon class="cls-1" points="116.91 20.31 89 7.42 89 0 60.62 11.56 60.62 21.83 88.76 10.32 116.91 21.83 116.91 20.31"/>
        <polygon class="cls-1" points="116.91 37.17 89 26.39 89 18.93 60.62 28.56 60.62 38.74 88.76 29.25 116.91 38.74 116.91 37.17"/>
        <polygon class="cls-1" points="116.91 54.08 89 45.14 89 37.91 60.62 45.42 60.62 55.6 88.76 48.18 116.91 55.6 116.91 54.08"/>
        <polygon class="cls-1" points="116.91 71.08 89 64.95 89 57.67 60.62 62.32 60.62 72.5 88.76 67.81 116.91 72.5 116.91 71.08"/>
        <polygon class="cls-1" points="60.62 79.18 60.62 89.36 88.76 87.01 116.91 89.36 116.91 87.98 89 84.02 89 76.74 60.62 79.18"/>
        <polygon class="cls-1" points="116.91 106.22 116.91 104.84 89 103.18 89 96.13 60.62 96.13 60.62 106.22 88.76 106.22 116.91 106.22"/>
        <polygon class="cls-1" points="149.2 18.93 120.73 28.56 120.73 38.74 148.88 29.25 176.98 38.74 176.98 37.17 149.2 26.39 149.2 18.93"/>
        <polygon class="cls-1" points="149.2 37.91 120.73 45.42 120.73 55.6 148.88 48.18 176.98 55.6 176.98 54.08 149.2 45.14 149.2 37.91"/>
        <polygon class="cls-1" points="149.2 57.67 120.73 62.32 120.73 72.5 148.88 67.81 176.98 72.5 176.98 71.08 149.2 64.95 149.2 57.67"/>
        <polygon class="cls-1" points="149.2 76.74 120.73 79.18 120.73 89.36 148.88 87.01 176.98 89.36 176.98 87.98 149.2 84.02 149.2 76.74"/>
        <polygon class="cls-1" points="149.2 96.13 120.73 96.13 120.73 106.22 148.88 106.22 176.98 106.22 176.98 104.84 149.2 103.18 149.2 96.13"/>
        <polygon class="cls-1" points="28.38 37.91 0 45.42 0 55.6 28.1 48.18 56.24 55.6 56.24 54.08 28.38 45.14 28.38 37.91"/>
        <polygon class="cls-1" points="28.38 57.67 0 62.32 0 72.5 28.1 67.81 56.24 72.5 56.24 71.08 28.38 64.95 28.38 57.67"/>
        <polygon class="cls-1" points="28.38 76.74 0 79.18 0 89.36 28.1 87.01 56.24 89.36 56.24 87.98 28.38 84.02 28.38 76.74"/>
        <polygon class="cls-1" points="28.38 96.13 0 96.13 0 106.22 28.1 106.22 56.24 106.22 56.24 104.84 28.38 103.18 28.38 96.13"/>
      </g>
    </g>
  </g>
</svg>